<svg width="3120" height="2779" viewBox="0 0 3120 2779" fill="none" xmlns="http://www.w3.org/2000/svg">
<path d="M3119.93 1389.62C3119.93 1182.93 2861.11 987.044 2464.28 865.571C2555.85 461.087 2515.15 139.28 2335.82 36.251C2294.48 12.0837 2246.15 0.635982 2193.37 0.635982V142.46C2222.62 142.46 2246.15 148.184 2265.86 158.995C2352.35 208.602 2389.87 397.489 2360.62 640.434C2353.62 700.216 2342.18 763.178 2328.19 827.412C2203.54 796.885 2067.45 773.354 1924.36 758.09C1838.51 640.434 1749.48 533.589 1659.81 440.099C1867.13 247.397 2061.73 141.824 2194 141.824V0C2019.12 0 1790.18 124.652 1558.7 340.886C1327.21 125.924 1098.27 2.54393 923.389 2.54393V144.368C1055.03 144.368 1250.26 249.305 1457.58 440.735C1368.55 534.225 1279.52 640.434 1194.94 758.09C1051.21 773.354 915.121 796.885 790.477 828.048C775.85 764.45 765.039 702.76 757.408 643.614C727.518 400.669 764.403 211.782 850.255 161.539C869.333 150.092 894.135 145.004 923.389 145.004V3.17991C869.969 3.17991 821.638 14.6276 779.666 38.7949C600.966 141.824 560.901 462.995 653.113 866.207C257.557 988.316 0 1183.56 0 1389.62C0 1595.68 258.829 1792.2 655.657 1913.67C564.081 2318.15 604.781 2639.96 784.117 2742.99C825.453 2767.16 873.785 2778.6 927.204 2778.6C1102.09 2778.6 1331.03 2653.95 1562.51 2437.72C1793.99 2652.68 2022.93 2776.06 2197.82 2776.06C2251.24 2776.06 2299.57 2764.61 2341.54 2740.45C2520.24 2637.42 2560.3 2316.25 2468.09 1913.03C2862.38 1791.56 3119.93 1595.68 3119.93 1389.62ZM2291.94 965.42C2268.41 1047.46 2239.15 1132.05 2206.08 1216.63C2180.01 1165.75 2152.67 1114.88 2122.78 1064C2093.52 1013.12 2062.36 963.513 2031.2 915.178C2121.5 928.534 2208.63 945.069 2291.94 965.42ZM2000.68 1642.74C1951.07 1728.6 1900.2 1810 1847.41 1885.69C1752.66 1893.95 1656.63 1898.41 1559.97 1898.41C1463.3 1898.41 1367.91 1893.95 1273.79 1886.32C1221.01 1810.64 1169.5 1729.87 1119.89 1644.65C1071.56 1561.34 1027.68 1476.75 987.619 1391.53C1027.05 1306.31 1071.56 1221.09 1119.26 1137.77C1168.86 1051.91 1219.74 970.508 1272.52 894.826C1367.28 886.559 1463.3 882.107 1559.97 882.107C1656.63 882.107 1752.02 886.559 1846.14 894.19C1898.92 969.872 1950.44 1050.64 2000.04 1135.86C2048.37 1219.18 2092.25 1303.76 2132.32 1388.98C2092.25 1474.21 2048.37 1559.43 2000.68 1642.74ZM2206.08 1560.06C2240.43 1645.29 2269.68 1730.51 2293.84 1813.18C2210.54 1833.54 2122.78 1850.71 2031.84 1864.06C2063 1815.09 2094.16 1764.85 2123.41 1713.34C2152.67 1662.46 2180.01 1610.94 2206.08 1560.06ZM1561.24 2238.66C1502.1 2177.6 1442.95 2109.55 1384.45 2035.14C1441.68 2037.69 1500.19 2039.59 1559.33 2039.59C1618.47 2039.59 1678.25 2038.32 1736.12 2035.14C1678.89 2109.55 1619.75 2177.6 1561.24 2238.66ZM1088.1 1864.06C997.794 1850.71 910.67 1834.17 827.361 1813.82C850.891 1731.78 880.144 1647.19 913.213 1562.61C939.287 1613.49 966.633 1664.36 996.522 1715.24C1026.41 1766.12 1056.94 1815.73 1088.1 1864.06ZM1558.06 540.585C1617.2 601.639 1676.34 669.689 1734.85 744.099C1677.62 741.555 1619.11 739.647 1559.97 739.647C1500.82 739.647 1441.05 740.919 1383.17 744.099C1440.41 669.689 1499.55 601.639 1558.06 540.585ZM1087.46 915.178C1056.3 964.149 1025.14 1014.39 995.886 1065.91C966.633 1116.78 939.287 1167.66 913.213 1218.54C878.873 1133.32 849.619 1048.1 825.453 965.42C908.762 945.705 996.522 928.534 1087.46 915.178ZM511.934 1711.43C286.81 1615.39 141.179 1489.47 141.179 1389.62C141.179 1289.77 286.81 1163.21 511.934 1067.81C566.625 1044.28 626.403 1023.29 688.09 1003.58C724.339 1128.23 772.034 1257.97 831.177 1390.89C772.67 1523.18 725.61 1652.28 689.998 1776.3C627.039 1756.58 567.261 1734.96 511.934 1711.43ZM854.071 2620.25C767.583 2570.64 730.062 2381.75 759.315 2138.81C766.311 2079.02 777.758 2016.06 791.748 1951.83C916.393 1982.36 1052.48 2005.89 1195.57 2021.15C1281.42 2138.81 1370.46 2245.65 1460.12 2339.14C1252.81 2531.84 1058.21 2637.42 925.932 2637.42C897.315 2636.78 873.149 2631.06 854.071 2620.25ZM2362.53 2135.63C2392.42 2378.57 2355.53 2567.46 2269.68 2617.7C2250.6 2629.15 2225.8 2634.24 2196.55 2634.24C2064.91 2634.24 1869.67 2529.3 1662.35 2337.87C1751.39 2244.38 1840.42 2138.17 1925 2020.51C2068.72 2005.25 2204.81 1981.72 2329.46 1950.56C2344.08 2014.79 2355.53 2076.48 2362.53 2135.63ZM2607.36 1711.43C2552.67 1734.96 2492.89 1755.95 2431.21 1775.66C2394.96 1651.01 2347.26 1521.27 2288.12 1388.35C2346.63 1256.06 2393.69 1126.96 2429.3 1002.94C2492.26 1022.66 2552.04 1044.28 2608 1067.81C2833.12 1163.85 2978.75 1289.77 2978.75 1389.62C2978.75 1489.47 2832.49 1616.03 2607.36 1711.43Z" fill="#61DAFB"/>
<path d="M1537.38 1099.48C1545.03 1098.48 1553.11 1099.16 1560.82 1099.16C1589.37 1099.16 1617.41 1103.6 1644.74 1112.02C1679.61 1122.76 1712.09 1139.94 1740.76 1162.53C1775.89 1190.22 1805.01 1226.55 1823.69 1267.31C1858.64 1343.58 1858.39 1436.02 1822.58 1511.97C1799.42 1561.07 1762.28 1602.17 1717.32 1632.15C1680.64 1656.6 1637.73 1671.57 1594.08 1676.87C1538.52 1683.62 1478.45 1673.76 1428.51 1648.11C1334.74 1599.96 1270.99 1503.04 1269.73 1396.84C1269.49 1376.36 1269.81 1355.76 1273.85 1335.48C1280.45 1302.46 1291.94 1270.54 1309.2 1241.56C1327.87 1210.21 1351.99 1182.55 1380.88 1160.25C1414.74 1134.1 1454.11 1115.28 1495.8 1105.71C1505.55 1103.47 1515.35 1102.2 1525.19 1101L1528.67 1100.57C1531.57 1100.22 1534.47 1099.87 1537.38 1099.48ZM1440.29 1582.05C1427.39 1583.44 1413.78 1585.79 1402.7 1593.05C1405.2 1593.65 1408.05 1593.05 1410.66 1593.05C1416.9 1593.04 1423.21 1592.8 1429.45 1593.08C1445.07 1593.77 1461.34 1596.27 1476.43 1600.41C1488.01 1603.6 1498.77 1608.63 1509.55 1613.66L1512.24 1614.92C1518.53 1617.85 1524.84 1620.73 1531.36 1623.2C1550.99 1630.63 1570.52 1632.93 1591.35 1632.93L1593.25 1632.93C1603.1 1632.92 1612.87 1632.73 1622.42 1630.03C1617.11 1627.2 1609.51 1627.73 1603.63 1626.55C1590.87 1623.99 1578.32 1620.87 1566.05 1616.48C1546.69 1609.56 1528.86 1599.17 1509.67 1591.91C1487.82 1583.64 1463.59 1579.55 1440.29 1582.05ZM1459.8 1527.06C1434.24 1527.06 1408.38 1531.57 1385.36 1543.19C1379.78 1546.01 1374.48 1549.36 1369.46 1553.08C1367.93 1554.22 1365.21 1555.67 1364.65 1557.64C1364.07 1559.64 1366.13 1561.32 1367.29 1562.59C1373.04 1559.52 1378.51 1556.27 1384.64 1553.94C1424.26 1538.86 1472.3 1542.02 1511.84 1555.85C1531.56 1562.74 1549.73 1573.05 1568.94 1581.14C1590.42 1590.18 1612.36 1596.05 1635.43 1599.06C1662.65 1602.6 1693.68 1599.73 1718.55 1587.43C1727.29 1583.1 1739.43 1576.52 1743.13 1566.94C1738.56 1567.34 1734.45 1569.3 1730.12 1570.65C1723.22 1572.8 1716.24 1574.62 1709.16 1576.05C1685.14 1580.86 1659.61 1581.86 1635.43 1577.49C1610.81 1573.03 1588.07 1563.73 1565.31 1554.27L1562.28 1553.01C1550.64 1548.17 1538.97 1543.35 1527.02 1539.17C1505.55 1531.66 1482.55 1527.06 1459.8 1527.06ZM1504.61 1133.61C1473.97 1140.39 1446.51 1153.6 1420.05 1170.25C1404.69 1179.91 1390 1189.82 1376.69 1202.26C1356.89 1220.76 1341.76 1243.24 1328.57 1266.73C1314.97 1290.93 1306.26 1319.13 1302.04 1346.5C1297.91 1373.34 1297.23 1401.57 1301.96 1428.44C1307.88 1462.03 1319.14 1493.55 1336.93 1522.71C1342.91 1519.91 1347.16 1513.54 1352.11 1509.24C1362.12 1500.57 1372.63 1492.53 1383.91 1485.59C1388.09 1483.02 1392.38 1481.03 1396.92 1479.2C1398.63 1478.51 1401.43 1477.88 1402.24 1476C1403.52 1473.01 1401.15 1467.8 1400.75 1464.7C1399.58 1455.83 1398.88 1446.81 1399.1 1437.87C1399.74 1411.81 1404.6 1385.39 1413.85 1361C1420.83 1342.62 1431.48 1325.94 1444.1 1310.96C1448.38 1305.88 1452.94 1301.15 1457.63 1296.46C1458.21 1295.88 1458.82 1295.32 1459.44 1294.77L1460.18 1294.1C1462.28 1292.2 1464.36 1290.28 1465.59 1287.76C1456.52 1287.77 1447.46 1290.38 1438.84 1293.04C1420.28 1298.77 1402.2 1307.26 1386.8 1319.25C1379.78 1324.72 1374.64 1331.89 1368 1337.64C1365.96 1339.41 1362.32 1341.77 1359.5 1340.44C1355.25 1338.43 1355.91 1330.05 1355.42 1326.19C1353.55 1311.37 1359.15 1292.63 1366.27 1279.78C1377.7 1259.16 1398.84 1241.55 1423.66 1242.17C1434.39 1242.43 1443.77 1246.17 1454.02 1248.6C1451.42 1244.9 1447.94 1242.21 1444.62 1239.17C1436.51 1231.74 1427.63 1224.96 1417.88 1219.83C1415.27 1218.45 1412.52 1217.43 1409.75 1216.46L1408.09 1215.88C1407.26 1215.59 1406.42 1215.29 1405.6 1214.99C1403.51 1214.23 1400.89 1213.18 1400.11 1210.86C1398.66 1206.57 1406.38 1202.59 1409.21 1200.78C1420.17 1193.78 1433.6 1188.02 1446.79 1187.7C1467.4 1187.19 1487.54 1198.65 1496.03 1218.14C1499.42 1225.92 1500.1 1234.21 1500.71 1242.53L1500.82 1244.09C1500.88 1244.87 1500.94 1245.65 1501 1246.43C1507.47 1241.14 1512.03 1233.36 1518.35 1227.7C1533.13 1214.45 1553.36 1208.58 1572.55 1214.54C1589.9 1219.92 1604.98 1231.92 1613.85 1247.88C1616.17 1252.05 1622.65 1262.26 1617.97 1266.42C1614.31 1269.67 1609.66 1267.13 1605.8 1265.78C1601.81 1264.39 1597.64 1263.69 1593.51 1262.86C1583.01 1260.75 1570.79 1260.97 1560.27 1262.82C1553.46 1264.02 1546.81 1266.45 1540.03 1267.46V1268.91C1558.57 1269.06 1576.51 1279.66 1585.66 1295.74C1589.45 1302.4 1591.34 1310.02 1592.79 1317.49C1594.59 1326.72 1593.32 1336.78 1590.81 1345.77C1589.96 1348.79 1588.43 1353.9 1584.83 1354.6C1582.28 1355.09 1580.12 1352.55 1578.67 1350.84C1574.86 1346.35 1571.24 1342.09 1566.77 1338.21C1555.47 1328.41 1543.51 1319.37 1531.36 1310.66C1524.9 1306.03 1517.83 1300.01 1510.4 1297.19C1512.49 1302.23 1514.54 1306.92 1515.25 1312.41C1517.34 1328.57 1510.59 1343.77 1500.46 1355.92C1497.36 1359.63 1494.06 1363.37 1490.16 1366.25C1488.54 1367.44 1486.51 1369 1484.38 1368.67C1477.67 1367.61 1476.88 1357.48 1475.85 1352.3C1472.37 1334.73 1473.77 1317.29 1478.59 1300.09C1474.3 1302.27 1471.19 1307.05 1468.49 1310.96C1462.56 1319.59 1457.41 1328.7 1453.71 1338.52C1439.01 1377.62 1439.15 1423.42 1458.2 1461.06C1460.33 1465.26 1463.56 1464.7 1467.75 1464.7C1472.81 1464.7 1477.91 1464.44 1482.93 1465.12C1484.88 1465.38 1487.6 1465.14 1489.14 1466.59C1490.99 1468.31 1490.01 1471.27 1489.58 1473.4C1488.39 1479.34 1487.99 1484.74 1487.99 1490.8C1495.9 1489.57 1498.09 1476.87 1500.9 1470.5C1504.08 1463.28 1507.31 1456.06 1510.25 1448.74C1511.7 1445.15 1513.63 1441.13 1513.12 1437.14C1512.55 1432.66 1509.32 1427.91 1507.07 1424.09C1502.81 1416.86 1497.96 1409.41 1494.82 1401.61C1492.31 1395.37 1494.65 1387.57 1501.72 1385.34C1505.63 1384.11 1509.79 1386.52 1512.33 1389.35C1515.93 1393.36 1518.67 1398.7 1521.27 1403.89L1522.01 1405.36C1522.99 1407.32 1523.96 1409.24 1524.95 1411.04L1555.11 1465.42C1557.67 1470.03 1560.23 1474.63 1562.85 1479.2C1563.88 1480.98 1564.92 1483.74 1567.01 1484.5C1568.87 1485.18 1571.42 1484.21 1573.28 1483.84C1578.09 1482.88 1582.9 1481.83 1587.73 1480.96C1593.52 1479.91 1602.35 1480.11 1606.52 1475.58C1600.42 1473.64 1593.36 1473.75 1587.01 1474.19C1586.22 1474.24 1585.42 1474.34 1584.61 1474.45L1583.91 1474.54C1581 1474.92 1578.03 1475.23 1575.46 1473.59C1570.24 1470.26 1566.77 1462.59 1563.57 1457.45C1555.7 1444.76 1548.28 1431.89 1540.74 1419.01C1538.34 1414.91 1535.87 1410.83 1533.54 1406.69C1532.64 1405.08 1531.3 1402.97 1532.59 1401.2C1533.93 1399.36 1536.84 1399.23 1539.49 1399.23L1540.64 1399.23C1541.48 1399.23 1542.26 1399.21 1542.92 1399.13C1553.68 1397.71 1564.59 1396.53 1575.44 1396.53C1574.6 1393.59 1572.18 1390.26 1572.96 1387.11C1574.69 1380.06 1584.81 1377.85 1589.53 1382.91C1592.69 1386.31 1594.53 1390.98 1596.58 1395.08C1599.3 1400.49 1602.39 1405.73 1605.3 1411.04C1610.39 1420.33 1615.95 1429.38 1621.18 1438.59C1621.65 1439.42 1622.13 1440.23 1622.62 1441.05L1623.35 1442.28C1625.56 1445.97 1627.74 1449.69 1628.93 1453.82C1610.75 1452.99 1597.1 1431.85 1589.18 1417.56C1588.54 1419.85 1589.57 1421.89 1590.39 1424.09C1592.1 1428.65 1594.14 1433 1596.71 1437.14C1600.38 1443.05 1604.59 1449.14 1610.14 1453.44C1619.99 1461.05 1632.98 1461.1 1644.83 1460.28C1652.43 1459.76 1661.93 1456.29 1669.4 1458.64C1676.87 1460.99 1679.87 1469.24 1675.44 1475.57C1672.12 1480.32 1667.69 1482.11 1662.18 1482.83C1666.07 1491.2 1671.18 1498.97 1674.88 1507.48C1676.42 1511.03 1678.03 1516.46 1681.72 1518.33C1684.18 1519.57 1687.7 1518.41 1690.36 1518.36C1687.7 1511.29 1682.7 1505.28 1680.25 1498.05C1687.73 1498.4 1694.96 1502.31 1701.93 1504.8C1717.74 1510.47 1733.32 1516.74 1748.91 1523C1754.46 1525.23 1760.06 1527.44 1765.53 1529.86C1767.53 1530.75 1770.31 1532.82 1772.52 1531.55C1774.33 1530.5 1775.5 1528.02 1776.61 1526.34C1779.73 1521.63 1782.55 1516.74 1785.35 1511.83C1796.55 1492.19 1804.76 1470.67 1810.25 1448.74C1828.35 1376.44 1812.82 1296.67 1769.33 1236.27C1752.62 1213.07 1731.6 1193.01 1708.43 1176.39C1650.45 1134.82 1574.38 1118.17 1504.61 1133.61ZM1623.15 1494.16C1607.78 1498.17 1591.94 1501.81 1576.17 1503.86C1578.24 1510.93 1583.31 1517.81 1587.02 1524.16C1588.45 1526.62 1589.99 1529.91 1592.82 1530.97C1596.02 1532.18 1599.89 1530.22 1602.91 1529.24C1601.51 1525.4 1599.16 1521.95 1597.23 1518.36C1596.44 1516.88 1595.21 1515.12 1595.86 1513.36C1597.1 1510.04 1602.23 1510.23 1605.08 1509.65C1612.57 1508.13 1619.99 1506.23 1627.48 1504.73C1630.25 1504.17 1634.09 1502.67 1636.87 1503.6C1640.51 1504.81 1641.62 1509.16 1644.26 1511.55C1647.29 1514.29 1651.82 1514.71 1655.67 1515.46C1653.32 1510.17 1649.42 1505.53 1646.92 1500.23C1645.46 1497.15 1644.27 1492.61 1641.08 1490.83C1636.69 1488.37 1627.63 1492.99 1623.15 1494.16ZM1526.3 1458.9C1525.57 1468.09 1522.76 1475.57 1518.35 1483.55C1523.4 1484.19 1528.56 1484.42 1533.52 1485.65C1537.25 1486.58 1540.68 1488.34 1544.37 1489.35C1542.39 1483.94 1538.73 1479.12 1535.9 1474.12C1533.03 1469.08 1530.47 1462.96 1526.3 1458.9Z" fill="#61DAFB"/>
<path d="M1033.67 611.934C1102.71 611.934 1158.67 566.693 1158.67 510.899C1158.67 476.303 1137.25 445.745 1104.31 427.621C1090.91 420.165 1080.38 413.471 1071.61 407.908C1055.11 397.408 1044.92 390.934 1033.67 390.934C1022.24 390.934 1009.36 399.123 992.356 409.926C982.775 416.145 972.992 422.047 963.023 427.621C930.097 445.745 908.671 476.303 908.671 510.899C908.671 566.693 964.632 611.934 1033.67 611.934ZM1019.08 425.467C1022.55 417.548 1024.32 408.985 1024.27 400.336C1024.27 398.83 1026.37 398.391 1026.66 400.043C1033.51 429.064 1017.26 443.444 1005.24 448.255C1003.94 448.757 1003.16 447 1004.16 446.08C1010.55 440.353 1015.63 433.325 1019.08 425.467ZM1040.51 424.4C1039.53 415.896 1036.75 407.698 1032.37 400.346V400.19C1031.66 398.903 1033.26 397.439 1034.3 398.391C1054.73 420.405 1047.91 440.798 1040.09 451.068C1039.23 452.135 1037.69 451.037 1038.12 449.75C1040.69 441.563 1041.51 432.925 1040.51 424.4ZM1059.01 418.554C1054.82 411.149 1049.1 404.728 1042.23 399.719V399.573C1041.06 398.684 1041.98 396.707 1043.41 397.293C1070.44 408.629 1072.3 430.455 1069.02 443.256C1068.96 443.558 1068.78 443.824 1068.52 443.998C1068.27 444.174 1067.96 444.244 1067.66 444.193C1067.37 444.142 1067.1 443.974 1066.92 443.727C1066.74 443.476 1066.66 443.167 1066.69 442.859C1065.86 434.308 1063.25 426.028 1059.01 418.554ZM1006.03 424.4C999.596 430.089 992.67 432.327 984.532 434.827C983.32 434.827 982.505 434.011 982.913 432.944C1001.16 423.459 1007.66 415.741 1014.15 403.965C1014.15 403.965 1015.77 402.741 1016.11 404.854C1016.11 408.023 1012.48 418.711 1006.03 424.4ZM1057.54 541.583C1056.06 547.874 1052.64 553.54 1047.77 557.782C1044.17 561.389 1039.45 563.667 1034.38 564.245C1029.17 563.757 1024.28 561.472 1020.56 557.782C1015.74 553.522 1012.37 547.858 1010.92 541.583C1010.87 541.211 1010.91 540.834 1011.02 540.478C1011.14 540.122 1011.33 539.795 1011.59 539.523C1011.84 539.256 1012.16 539.052 1012.51 538.927C1012.85 538.802 1013.23 538.759 1013.59 538.801H1054.9C1055.26 538.76 1055.63 538.805 1055.98 538.932C1056.32 539.059 1056.63 539.265 1056.88 539.533C1057.14 539.804 1057.33 540.129 1057.44 540.483C1057.56 540.838 1057.59 541.214 1057.54 541.583ZM1000.68 518.889C996.91 521.471 992.346 522.632 987.8 522.165C983.254 521.697 979.021 519.633 975.851 516.337C972.624 512.985 970.627 508.638 970.184 504.003C969.742 499.369 970.882 494.722 973.417 490.819C975.58 487.494 978.661 484.91 982.255 483.384C985.842 481.854 989.81 481.452 993.631 482.233C997.444 483.018 1000.95 484.952 1003.7 487.776C1006.46 490.6 1008.33 494.218 1009.08 498.129C1009.84 502.054 1009.45 506.115 1007.95 509.822C1006.47 513.491 1003.94 516.652 1000.68 518.889ZM1089.17 518.941C1085.39 521.507 1080.83 522.65 1076.29 522.167C1071.75 521.685 1067.53 519.608 1064.37 516.306C1060.7 512.479 1058.65 507.371 1058.67 502.062C1058.67 498.056 1059.82 494.134 1062 490.809C1064.16 487.483 1067.25 484.89 1070.85 483.373C1074.44 481.848 1078.41 481.454 1082.24 482.244C1086.06 483.038 1089.57 484.973 1092.32 487.818C1095.06 490.662 1096.91 494.27 1097.67 498.203C1098.41 502.132 1098 506.193 1096.48 509.895C1094.99 513.566 1092.45 516.713 1089.17 518.941Z" fill="#61DAFB"/>
<path d="M1033.67 611.934C1102.71 611.934 1158.67 566.693 1158.67 510.899C1158.67 476.303 1137.25 445.745 1104.31 427.621C1090.91 420.165 1080.38 413.471 1071.61 407.908C1055.11 397.408 1044.92 390.934 1033.67 390.934C1022.24 390.934 1009.36 399.123 992.356 409.926C982.775 416.145 972.992 422.047 963.023 427.621C930.097 445.745 908.671 476.303 908.671 510.899C908.671 566.693 964.632 611.934 1033.67 611.934ZM1019.08 425.467C1022.55 417.548 1024.32 408.985 1024.27 400.336C1024.27 398.83 1026.37 398.391 1026.66 400.043C1033.51 429.064 1017.26 443.444 1005.24 448.255C1003.94 448.757 1003.16 447 1004.16 446.08C1010.55 440.353 1015.63 433.325 1019.08 425.467ZM1040.51 424.4C1039.53 415.896 1036.75 407.698 1032.37 400.346V400.19C1031.66 398.903 1033.26 397.439 1034.3 398.391C1054.73 420.405 1047.91 440.798 1040.09 451.068C1039.23 452.135 1037.69 451.037 1038.12 449.75C1040.69 441.563 1041.51 432.925 1040.51 424.4ZM1059.01 418.554C1054.82 411.149 1049.1 404.728 1042.23 399.719V399.573C1041.06 398.684 1041.98 396.707 1043.41 397.293C1070.44 408.629 1072.3 430.455 1069.02 443.256C1068.96 443.558 1068.78 443.824 1068.52 443.998C1068.27 444.174 1067.96 444.244 1067.66 444.193C1067.37 444.142 1067.1 443.974 1066.92 443.727C1066.74 443.476 1066.66 443.167 1066.69 442.859C1065.86 434.308 1063.25 426.028 1059.01 418.554ZM1006.03 424.4C999.596 430.089 992.67 432.327 984.532 434.827C983.32 434.827 982.505 434.011 982.913 432.944C1001.16 423.459 1007.66 415.741 1014.15 403.965C1014.15 403.965 1015.77 402.741 1016.11 404.854C1016.11 408.023 1012.48 418.711 1006.03 424.4ZM1057.54 541.583C1056.06 547.874 1052.64 553.54 1047.77 557.782C1044.17 561.389 1039.45 563.667 1034.38 564.245C1029.17 563.757 1024.28 561.472 1020.56 557.782C1015.74 553.522 1012.37 547.858 1010.92 541.583C1010.87 541.211 1010.91 540.834 1011.02 540.478C1011.14 540.122 1011.33 539.795 1011.59 539.523C1011.84 539.256 1012.16 539.052 1012.51 538.927C1012.85 538.802 1013.23 538.759 1013.59 538.801H1054.9C1055.26 538.76 1055.63 538.805 1055.98 538.932C1056.32 539.059 1056.63 539.265 1056.88 539.533C1057.14 539.804 1057.33 540.129 1057.44 540.483C1057.56 540.838 1057.59 541.214 1057.54 541.583ZM1000.68 518.889C996.91 521.471 992.346 522.632 987.8 522.165C983.254 521.697 979.021 519.633 975.851 516.337C972.624 512.985 970.627 508.638 970.184 504.003C969.742 499.369 970.882 494.722 973.417 490.819C975.58 487.494 978.661 484.91 982.255 483.384C985.842 481.854 989.81 481.452 993.631 482.233C997.444 483.018 1000.95 484.952 1003.7 487.776C1006.46 490.6 1008.33 494.218 1009.08 498.129C1009.84 502.054 1009.45 506.115 1007.95 509.822C1006.47 513.491 1003.94 516.652 1000.68 518.889ZM1089.17 518.941C1085.39 521.507 1080.83 522.65 1076.29 522.167C1071.75 521.685 1067.53 519.608 1064.37 516.306C1060.7 512.479 1058.65 507.371 1058.67 502.062C1058.67 498.056 1059.82 494.134 1062 490.809C1064.16 487.483 1067.25 484.89 1070.85 483.373C1074.44 481.848 1078.41 481.454 1082.24 482.244C1086.06 483.038 1089.57 484.973 1092.32 487.818C1095.06 490.662 1096.91 494.27 1097.67 498.203C1098.41 502.132 1098 506.193 1096.48 509.895C1094.99 513.566 1092.45 516.713 1089.17 518.941Z" fill="#61DAFB"/>
<path d="M1033.67 611.934C1102.71 611.934 1158.67 566.693 1158.67 510.899C1158.67 476.303 1137.25 445.745 1104.31 427.621C1090.91 420.165 1080.38 413.471 1071.61 407.908C1055.11 397.408 1044.92 390.934 1033.67 390.934C1022.24 390.934 1009.36 399.123 992.356 409.926C982.775 416.145 972.992 422.047 963.023 427.621C930.097 445.745 908.671 476.303 908.671 510.899C908.671 566.693 964.632 611.934 1033.67 611.934ZM1019.08 425.467C1022.55 417.548 1024.32 408.985 1024.27 400.336C1024.27 398.83 1026.37 398.391 1026.66 400.043C1033.51 429.064 1017.26 443.444 1005.24 448.255C1003.94 448.757 1003.16 447 1004.16 446.08C1010.55 440.353 1015.63 433.325 1019.08 425.467ZM1040.51 424.4C1039.53 415.896 1036.75 407.698 1032.37 400.346V400.19C1031.66 398.903 1033.26 397.439 1034.3 398.391C1054.73 420.405 1047.91 440.798 1040.09 451.068C1039.23 452.135 1037.69 451.037 1038.12 449.75C1040.69 441.563 1041.51 432.925 1040.51 424.4ZM1059.01 418.554C1054.82 411.149 1049.1 404.728 1042.23 399.719V399.573C1041.06 398.684 1041.98 396.707 1043.41 397.293C1070.44 408.629 1072.3 430.455 1069.02 443.256C1068.96 443.558 1068.78 443.824 1068.52 443.998C1068.27 444.174 1067.96 444.244 1067.66 444.193C1067.37 444.142 1067.1 443.974 1066.92 443.727C1066.74 443.476 1066.66 443.167 1066.69 442.859C1065.86 434.308 1063.25 426.028 1059.01 418.554ZM1006.03 424.4C999.596 430.089 992.67 432.327 984.532 434.827C983.32 434.827 982.505 434.011 982.913 432.944C1001.16 423.459 1007.66 415.741 1014.15 403.965C1014.15 403.965 1015.77 402.741 1016.11 404.854C1016.11 408.023 1012.48 418.711 1006.03 424.4ZM1057.54 541.583C1056.06 547.874 1052.64 553.54 1047.77 557.782C1044.17 561.389 1039.45 563.667 1034.38 564.245C1029.17 563.757 1024.28 561.472 1020.56 557.782C1015.74 553.522 1012.37 547.858 1010.92 541.583C1010.87 541.211 1010.91 540.834 1011.02 540.478C1011.14 540.122 1011.33 539.795 1011.59 539.523C1011.84 539.256 1012.16 539.052 1012.51 538.927C1012.85 538.802 1013.23 538.759 1013.59 538.801H1054.9C1055.26 538.76 1055.63 538.805 1055.98 538.932C1056.32 539.059 1056.63 539.265 1056.88 539.533C1057.14 539.804 1057.33 540.129 1057.44 540.483C1057.56 540.838 1057.59 541.214 1057.54 541.583ZM1000.68 518.889C996.91 521.471 992.346 522.632 987.8 522.165C983.254 521.697 979.021 519.633 975.851 516.337C972.624 512.985 970.627 508.638 970.184 504.003C969.742 499.369 970.882 494.722 973.417 490.819C975.58 487.494 978.661 484.91 982.255 483.384C985.842 481.854 989.81 481.452 993.631 482.233C997.444 483.018 1000.95 484.952 1003.7 487.776C1006.46 490.6 1008.33 494.218 1009.08 498.129C1009.84 502.054 1009.45 506.115 1007.95 509.822C1006.47 513.491 1003.94 516.652 1000.68 518.889ZM1089.17 518.941C1085.39 521.507 1080.83 522.65 1076.29 522.167C1071.75 521.685 1067.53 519.608 1064.37 516.306C1060.7 512.479 1058.65 507.371 1058.67 502.062C1058.67 498.056 1059.82 494.134 1062 490.809C1064.16 487.483 1067.25 484.89 1070.85 483.373C1074.44 481.848 1078.41 481.454 1082.24 482.244C1086.06 483.038 1089.57 484.973 1092.32 487.818C1095.06 490.662 1096.91 494.27 1097.67 498.203C1098.41 502.132 1098 506.193 1096.48 509.895C1094.99 513.566 1092.45 516.713 1089.17 518.941Z" fill="#61DAFB"/>
<path d="M1043.67 2400.93C1112.71 2400.93 1168.67 2355.69 1168.67 2299.9C1168.67 2265.3 1147.25 2234.74 1114.31 2216.62C1100.91 2209.16 1090.38 2202.47 1081.61 2196.91C1065.11 2186.41 1054.92 2179.93 1043.67 2179.93C1032.24 2179.93 1019.36 2188.12 1002.36 2198.93C992.775 2205.15 982.992 2211.05 973.023 2216.62C940.097 2234.74 918.671 2265.3 918.671 2299.9C918.671 2355.69 974.632 2400.93 1043.67 2400.93ZM1029.08 2214.47C1032.55 2206.55 1034.32 2197.99 1034.27 2189.34C1034.27 2187.83 1036.37 2187.39 1036.66 2189.04C1043.51 2218.06 1027.26 2232.44 1015.24 2237.25C1013.94 2237.76 1013.16 2236 1014.16 2235.08C1020.55 2229.35 1025.63 2222.32 1029.08 2214.47ZM1050.51 2213.4C1049.53 2204.9 1046.75 2196.7 1042.37 2189.35V2189.19C1041.66 2187.9 1043.26 2186.44 1044.3 2187.39C1064.73 2209.41 1057.91 2229.8 1050.09 2240.07C1049.23 2241.13 1047.69 2240.04 1048.12 2238.75C1050.69 2230.56 1051.51 2221.92 1050.51 2213.4ZM1069.01 2207.55C1064.82 2200.15 1059.1 2193.73 1052.23 2188.72V2188.57C1051.06 2187.68 1051.98 2185.71 1053.41 2186.29C1080.44 2197.63 1082.3 2219.46 1079.02 2232.26C1078.96 2232.56 1078.78 2232.82 1078.52 2233C1078.27 2233.17 1077.96 2233.24 1077.66 2233.19C1077.37 2233.14 1077.1 2232.97 1076.92 2232.73C1076.74 2232.48 1076.66 2232.17 1076.69 2231.86C1075.86 2223.31 1073.25 2215.03 1069.01 2207.55ZM1016.03 2213.4C1009.6 2219.09 1002.67 2221.33 994.532 2223.83C993.32 2223.83 992.505 2223.01 992.913 2221.94C1011.16 2212.46 1017.66 2204.74 1024.15 2192.96C1024.15 2192.96 1025.77 2191.74 1026.11 2193.85C1026.11 2197.02 1022.48 2207.71 1016.03 2213.4ZM1067.54 2330.58C1066.06 2336.87 1062.64 2342.54 1057.77 2346.78C1054.17 2350.39 1049.45 2352.67 1044.38 2353.25C1039.17 2352.76 1034.28 2350.47 1030.56 2346.78C1025.74 2342.52 1022.37 2336.86 1020.92 2330.58C1020.87 2330.21 1020.91 2329.83 1021.02 2329.48C1021.14 2329.12 1021.33 2328.8 1021.59 2328.52C1021.84 2328.26 1022.16 2328.05 1022.51 2327.93C1022.85 2327.8 1023.23 2327.76 1023.59 2327.8H1064.9C1065.26 2327.76 1065.63 2327.8 1065.98 2327.93C1066.32 2328.06 1066.63 2328.26 1066.88 2328.53C1067.14 2328.8 1067.33 2329.13 1067.44 2329.48C1067.56 2329.84 1067.59 2330.21 1067.54 2330.58ZM1010.68 2307.89C1006.91 2310.47 1002.35 2311.63 997.8 2311.16C993.254 2310.7 989.021 2308.63 985.851 2305.34C982.624 2301.99 980.627 2297.64 980.184 2293C979.742 2288.37 980.882 2283.72 983.417 2279.82C985.58 2276.49 988.661 2273.91 992.255 2272.38C995.842 2270.85 999.81 2270.45 1003.63 2271.23C1007.44 2272.02 1010.95 2273.95 1013.7 2276.78C1016.46 2279.6 1018.33 2283.22 1019.08 2287.13C1019.84 2291.05 1019.45 2295.11 1017.95 2298.82C1016.47 2302.49 1013.94 2305.65 1010.68 2307.89ZM1099.17 2307.94C1095.39 2310.51 1090.83 2311.65 1086.29 2311.17C1081.75 2310.68 1077.53 2308.61 1074.37 2305.31C1070.7 2301.48 1068.65 2296.37 1068.67 2291.06C1068.67 2287.06 1069.82 2283.13 1072 2279.81C1074.16 2276.48 1077.25 2273.89 1080.85 2272.37C1084.44 2270.85 1088.41 2270.45 1092.24 2271.24C1096.06 2272.04 1099.57 2273.97 1102.32 2276.82C1105.06 2279.66 1106.91 2283.27 1107.67 2287.2C1108.41 2291.13 1108 2295.19 1106.48 2298.89C1104.99 2302.57 1102.45 2305.71 1099.17 2307.94Z" fill="#61DAFB"/>
<path d="M2084.67 2400.93C2153.71 2400.93 2209.67 2355.69 2209.67 2299.9C2209.67 2265.3 2188.25 2234.74 2155.31 2216.62C2141.91 2209.16 2131.38 2202.47 2122.61 2196.91C2106.11 2186.41 2095.92 2179.93 2084.67 2179.93C2073.24 2179.93 2060.36 2188.12 2043.36 2198.93C2033.78 2205.15 2023.99 2211.05 2014.02 2216.62C1981.1 2234.74 1959.67 2265.3 1959.67 2299.9C1959.67 2355.69 2015.63 2400.93 2084.67 2400.93ZM2070.08 2214.47C2073.55 2206.55 2075.32 2197.99 2075.27 2189.34C2075.27 2187.83 2077.37 2187.39 2077.66 2189.04C2084.51 2218.06 2068.26 2232.44 2056.24 2237.25C2054.94 2237.76 2054.16 2236 2055.16 2235.08C2061.55 2229.35 2066.63 2222.32 2070.08 2214.47ZM2091.51 2213.4C2090.53 2204.9 2087.75 2196.7 2083.37 2189.35V2189.19C2082.66 2187.9 2084.26 2186.44 2085.3 2187.39C2105.73 2209.41 2098.91 2229.8 2091.09 2240.07C2090.23 2241.13 2088.69 2240.04 2089.12 2238.75C2091.69 2230.56 2092.51 2221.92 2091.51 2213.4ZM2110.01 2207.55C2105.82 2200.15 2100.1 2193.73 2093.23 2188.72V2188.57C2092.06 2187.68 2092.98 2185.71 2094.41 2186.29C2121.44 2197.63 2123.3 2219.46 2120.02 2232.26C2119.96 2232.56 2119.78 2232.82 2119.52 2233C2119.27 2233.17 2118.96 2233.24 2118.66 2233.19C2118.37 2233.14 2118.1 2232.97 2117.92 2232.73C2117.74 2232.48 2117.66 2232.17 2117.69 2231.86C2116.86 2223.31 2114.25 2215.03 2110.01 2207.55ZM2057.03 2213.4C2050.6 2219.09 2043.67 2221.33 2035.53 2223.83C2034.32 2223.83 2033.51 2223.01 2033.91 2221.94C2052.16 2212.46 2058.66 2204.74 2065.15 2192.96C2065.15 2192.96 2066.77 2191.74 2067.11 2193.85C2067.11 2197.02 2063.48 2207.71 2057.03 2213.4ZM2108.54 2330.58C2107.06 2336.87 2103.64 2342.54 2098.77 2346.78C2095.17 2350.39 2090.45 2352.67 2085.38 2353.25C2080.17 2352.76 2075.28 2350.47 2071.56 2346.78C2066.74 2342.52 2063.37 2336.86 2061.92 2330.58C2061.87 2330.21 2061.91 2329.83 2062.02 2329.48C2062.14 2329.12 2062.33 2328.8 2062.59 2328.52C2062.84 2328.26 2063.16 2328.05 2063.51 2327.93C2063.85 2327.8 2064.23 2327.76 2064.59 2327.8H2105.9C2106.26 2327.76 2106.63 2327.8 2106.98 2327.93C2107.32 2328.06 2107.63 2328.26 2107.88 2328.53C2108.14 2328.8 2108.33 2329.13 2108.44 2329.48C2108.56 2329.84 2108.59 2330.21 2108.54 2330.58ZM2051.68 2307.89C2047.91 2310.47 2043.35 2311.63 2038.8 2311.16C2034.25 2310.7 2030.02 2308.63 2026.85 2305.34C2023.62 2301.99 2021.63 2297.64 2021.18 2293C2020.74 2288.37 2021.88 2283.72 2024.42 2279.82C2026.58 2276.49 2029.66 2273.91 2033.25 2272.38C2036.84 2270.85 2040.81 2270.45 2044.63 2271.23C2048.44 2272.02 2051.95 2273.95 2054.7 2276.78C2057.46 2279.6 2059.33 2283.22 2060.08 2287.13C2060.84 2291.05 2060.45 2295.11 2058.95 2298.82C2057.47 2302.49 2054.94 2305.65 2051.68 2307.89ZM2140.17 2307.94C2136.39 2310.51 2131.83 2311.65 2127.29 2311.17C2122.75 2310.68 2118.53 2308.61 2115.37 2305.31C2111.7 2301.48 2109.65 2296.37 2109.67 2291.06C2109.67 2287.06 2110.82 2283.13 2113 2279.81C2115.16 2276.48 2118.25 2273.89 2121.85 2272.37C2125.44 2270.85 2129.41 2270.45 2133.24 2271.24C2137.06 2272.04 2140.57 2273.97 2143.32 2276.82C2146.06 2279.66 2147.91 2283.27 2148.67 2287.2C2149.41 2291.13 2149 2295.19 2147.48 2298.89C2145.99 2302.57 2143.45 2305.71 2140.17 2307.94Z" fill="#61DAFB"/>
<path d="M2084.67 611.934C2153.71 611.934 2209.67 566.693 2209.67 510.899C2209.67 476.303 2188.25 445.745 2155.31 427.621C2141.91 420.165 2131.38 413.471 2122.61 407.908C2106.11 397.408 2095.92 390.934 2084.67 390.934C2073.24 390.934 2060.36 399.123 2043.36 409.926C2033.78 416.145 2023.99 422.047 2014.02 427.621C1981.1 445.745 1959.67 476.303 1959.67 510.899C1959.67 566.693 2015.63 611.934 2084.67 611.934ZM2070.08 425.467C2073.55 417.548 2075.32 408.985 2075.27 400.336C2075.27 398.83 2077.37 398.391 2077.66 400.043C2084.51 429.064 2068.26 443.444 2056.24 448.255C2054.94 448.757 2054.16 447 2055.16 446.08C2061.55 440.353 2066.63 433.325 2070.08 425.467ZM2091.51 424.4C2090.53 415.896 2087.75 407.698 2083.37 400.346V400.19C2082.66 398.903 2084.26 397.439 2085.3 398.391C2105.73 420.405 2098.91 440.798 2091.09 451.068C2090.23 452.135 2088.69 451.037 2089.12 449.75C2091.69 441.563 2092.51 432.925 2091.51 424.4ZM2110.01 418.554C2105.82 411.149 2100.1 404.728 2093.23 399.719V399.573C2092.06 398.684 2092.98 396.707 2094.41 397.293C2121.44 408.629 2123.3 430.455 2120.02 443.256C2119.96 443.558 2119.78 443.824 2119.52 443.998C2119.27 444.174 2118.96 444.244 2118.66 444.193C2118.37 444.142 2118.1 443.974 2117.92 443.727C2117.74 443.476 2117.66 443.167 2117.69 442.859C2116.86 434.308 2114.25 426.028 2110.01 418.554ZM2057.03 424.4C2050.6 430.089 2043.67 432.327 2035.53 434.827C2034.32 434.827 2033.51 434.011 2033.91 432.944C2052.16 423.459 2058.66 415.741 2065.15 403.965C2065.15 403.965 2066.77 402.741 2067.11 404.854C2067.11 408.023 2063.48 418.711 2057.03 424.4ZM2108.54 541.583C2107.06 547.874 2103.64 553.54 2098.77 557.782C2095.17 561.389 2090.45 563.667 2085.38 564.245C2080.17 563.757 2075.28 561.472 2071.56 557.782C2066.74 553.522 2063.37 547.858 2061.92 541.583C2061.87 541.211 2061.91 540.834 2062.02 540.478C2062.14 540.122 2062.33 539.795 2062.59 539.523C2062.84 539.256 2063.16 539.052 2063.51 538.927C2063.85 538.802 2064.23 538.759 2064.59 538.801H2105.9C2106.26 538.76 2106.63 538.805 2106.98 538.932C2107.32 539.059 2107.63 539.265 2107.88 539.533C2108.14 539.804 2108.33 540.129 2108.44 540.483C2108.56 540.838 2108.59 541.214 2108.54 541.583ZM2051.68 518.889C2047.91 521.471 2043.35 522.632 2038.8 522.165C2034.25 521.697 2030.02 519.633 2026.85 516.337C2023.62 512.985 2021.63 508.638 2021.18 504.003C2020.74 499.369 2021.88 494.722 2024.42 490.819C2026.58 487.494 2029.66 484.91 2033.25 483.384C2036.84 481.854 2040.81 481.452 2044.63 482.233C2048.44 483.018 2051.95 484.952 2054.7 487.776C2057.46 490.6 2059.33 494.218 2060.08 498.129C2060.84 502.054 2060.45 506.115 2058.95 509.822C2057.47 513.491 2054.94 516.652 2051.68 518.889ZM2140.17 518.941C2136.39 521.507 2131.83 522.65 2127.29 522.167C2122.75 521.685 2118.53 519.608 2115.37 516.306C2111.7 512.479 2109.65 507.371 2109.67 502.062C2109.67 498.056 2110.82 494.134 2113 490.809C2115.16 487.483 2118.25 484.89 2121.85 483.373C2125.44 481.848 2129.41 481.454 2133.24 482.244C2137.06 483.038 2140.57 484.973 2143.32 487.818C2146.06 490.662 2147.91 494.27 2148.67 498.203C2149.41 502.132 2149 506.193 2147.48 509.895C2145.99 513.566 2143.45 516.713 2140.17 518.941Z" fill="#61DAFB"/>
<path d="M2630.67 1507.93C2699.71 1507.93 2755.67 1462.69 2755.67 1406.9C2755.67 1372.3 2734.25 1341.74 2701.31 1323.62C2687.91 1316.16 2677.38 1309.47 2668.61 1303.91C2652.11 1293.41 2641.92 1286.93 2630.67 1286.93C2619.24 1286.93 2606.36 1295.12 2589.36 1305.93C2579.78 1312.15 2569.99 1318.05 2560.02 1323.62C2527.1 1341.74 2505.67 1372.3 2505.67 1406.9C2505.67 1462.69 2561.63 1507.93 2630.67 1507.93ZM2616.08 1321.47C2619.55 1313.55 2621.32 1304.99 2621.27 1296.34C2621.27 1294.83 2623.37 1294.39 2623.66 1296.04C2630.51 1325.06 2614.26 1339.44 2602.24 1344.25C2600.94 1344.76 2600.16 1343 2601.16 1342.08C2607.55 1336.35 2612.63 1329.32 2616.08 1321.47ZM2637.51 1320.4C2636.53 1311.9 2633.75 1303.7 2629.37 1296.35V1296.19C2628.66 1294.9 2630.26 1293.44 2631.3 1294.39C2651.73 1316.41 2644.91 1336.8 2637.09 1347.07C2636.23 1348.13 2634.69 1347.04 2635.12 1345.75C2637.69 1337.56 2638.51 1328.92 2637.51 1320.4ZM2656.01 1314.55C2651.82 1307.15 2646.1 1300.73 2639.23 1295.72V1295.57C2638.06 1294.68 2638.98 1292.71 2640.41 1293.29C2667.44 1304.63 2669.3 1326.46 2666.02 1339.26C2665.96 1339.56 2665.78 1339.82 2665.52 1340C2665.27 1340.17 2664.96 1340.24 2664.66 1340.19C2664.37 1340.14 2664.1 1339.97 2663.92 1339.73C2663.74 1339.48 2663.66 1339.17 2663.69 1338.86C2662.86 1330.31 2660.25 1322.03 2656.01 1314.55ZM2603.03 1320.4C2596.6 1326.09 2589.67 1328.33 2581.53 1330.83C2580.32 1330.83 2579.51 1330.01 2579.91 1328.94C2598.16 1319.46 2604.66 1311.74 2611.15 1299.96C2611.15 1299.96 2612.77 1298.74 2613.11 1300.85C2613.11 1304.02 2609.48 1314.71 2603.03 1320.4ZM2654.54 1437.58C2653.06 1443.87 2649.64 1449.54 2644.77 1453.78C2641.17 1457.39 2636.45 1459.67 2631.38 1460.25C2626.17 1459.76 2621.28 1457.47 2617.56 1453.78C2612.74 1449.52 2609.37 1443.86 2607.92 1437.58C2607.87 1437.21 2607.91 1436.83 2608.02 1436.48C2608.14 1436.12 2608.33 1435.8 2608.59 1435.52C2608.84 1435.26 2609.16 1435.05 2609.51 1434.93C2609.85 1434.8 2610.23 1434.76 2610.59 1434.8H2651.9C2652.26 1434.76 2652.63 1434.8 2652.98 1434.93C2653.32 1435.06 2653.63 1435.26 2653.88 1435.53C2654.14 1435.8 2654.33 1436.13 2654.44 1436.48C2654.56 1436.84 2654.59 1437.21 2654.54 1437.58ZM2597.68 1414.89C2593.91 1417.47 2589.35 1418.63 2584.8 1418.16C2580.25 1417.7 2576.02 1415.63 2572.85 1412.34C2569.62 1408.99 2567.63 1404.64 2567.18 1400C2566.74 1395.37 2567.88 1390.72 2570.42 1386.82C2572.58 1383.49 2575.66 1380.91 2579.25 1379.38C2582.84 1377.85 2586.81 1377.45 2590.63 1378.23C2594.44 1379.02 2597.95 1380.95 2600.7 1383.78C2603.46 1386.6 2605.33 1390.22 2606.08 1394.13C2606.84 1398.05 2606.45 1402.11 2604.95 1405.82C2603.47 1409.49 2600.94 1412.65 2597.68 1414.89ZM2686.17 1414.94C2682.39 1417.51 2677.83 1418.65 2673.29 1418.17C2668.75 1417.68 2664.53 1415.61 2661.37 1412.31C2657.7 1408.48 2655.65 1403.37 2655.67 1398.06C2655.67 1394.06 2656.82 1390.13 2659 1386.81C2661.16 1383.48 2664.25 1380.89 2667.85 1379.37C2671.44 1377.85 2675.41 1377.45 2679.24 1378.24C2683.06 1379.04 2686.57 1380.97 2689.32 1383.82C2692.06 1386.66 2693.91 1390.27 2694.67 1394.2C2695.41 1398.13 2695 1402.19 2693.48 1405.89C2691.99 1409.57 2689.45 1412.71 2686.17 1414.94Z" fill="#61DAFB"/>
<path d="M497.671 1507.93C566.711 1507.93 622.671 1462.69 622.671 1406.9C622.671 1372.3 601.246 1341.74 568.309 1323.62C554.906 1316.16 544.377 1309.47 535.612 1303.91C519.107 1293.41 508.922 1286.93 497.671 1286.93C486.243 1286.93 473.363 1295.12 456.356 1305.93C446.775 1312.15 436.992 1318.05 427.023 1323.62C394.097 1341.74 372.671 1372.3 372.671 1406.9C372.671 1462.69 428.632 1507.93 497.671 1507.93ZM483.078 1321.47C486.553 1313.55 488.322 1304.99 488.27 1296.34C488.27 1294.83 490.369 1294.39 490.662 1296.04C497.515 1325.06 481.26 1339.44 469.237 1344.25C467.941 1344.76 467.158 1343 468.161 1342.08C474.546 1336.35 479.632 1329.32 483.078 1321.47ZM504.514 1320.4C503.525 1311.9 500.748 1303.7 496.365 1296.35V1296.19C495.655 1294.9 497.264 1293.44 498.298 1294.39C518.731 1316.41 511.91 1336.8 504.085 1347.07C503.229 1348.13 501.693 1347.04 502.121 1345.75C504.69 1337.56 505.505 1328.92 504.514 1320.4ZM523.014 1314.55C518.823 1307.15 513.1 1300.73 506.227 1295.72V1295.57C505.057 1294.68 505.976 1292.71 507.407 1293.29C534.442 1304.63 536.302 1326.46 533.021 1339.26C532.955 1339.56 532.776 1339.82 532.52 1340C532.272 1340.17 531.964 1340.24 531.665 1340.19C531.365 1340.14 531.098 1339.97 530.922 1339.73C530.739 1339.48 530.657 1339.17 530.692 1338.86C529.861 1330.31 527.245 1322.03 523.014 1314.55ZM470.03 1320.4C463.596 1326.09 456.67 1328.33 448.532 1330.83C447.32 1330.83 446.505 1330.01 446.913 1328.94C465.162 1319.46 471.66 1311.74 478.147 1299.96C478.147 1299.96 479.766 1298.74 480.111 1300.85C480.111 1304.02 476.476 1314.71 470.03 1320.4ZM521.541 1437.58C520.061 1443.87 516.645 1449.54 511.774 1453.78C508.167 1457.39 503.447 1459.67 498.382 1460.25C493.167 1459.76 488.282 1457.47 484.561 1453.78C479.737 1449.52 476.366 1443.86 474.919 1437.58C474.872 1437.21 474.908 1436.83 475.023 1436.48C475.139 1436.12 475.332 1435.8 475.588 1435.52C475.844 1435.26 476.159 1435.05 476.506 1434.93C476.854 1434.8 477.226 1434.76 477.594 1434.8H518.898C519.263 1434.76 519.632 1434.8 519.977 1434.93C520.322 1435.06 520.632 1435.26 520.883 1435.53C521.138 1435.8 521.33 1436.13 521.444 1436.48C521.558 1436.84 521.591 1437.21 521.541 1437.58ZM464.682 1414.89C460.91 1417.47 456.346 1418.63 451.8 1418.16C447.254 1417.7 443.021 1415.63 439.851 1412.34C436.624 1408.99 434.627 1404.64 434.184 1400C433.742 1395.37 434.882 1390.72 437.417 1386.82C439.58 1383.49 442.661 1380.91 446.255 1379.38C449.842 1377.85 453.81 1377.45 457.631 1378.23C461.444 1379.02 464.954 1380.95 467.701 1383.78C470.459 1386.6 472.329 1390.22 473.081 1394.13C473.84 1398.05 473.448 1402.11 471.953 1405.82C470.472 1409.49 467.943 1412.65 464.682 1414.89ZM553.172 1414.94C549.394 1417.51 544.831 1418.65 540.291 1418.17C535.751 1417.68 531.529 1415.61 528.373 1412.31C524.697 1408.48 522.652 1403.37 522.669 1398.06C522.669 1394.06 523.818 1390.13 526.002 1386.81C528.164 1383.48 531.246 1380.89 534.85 1379.37C538.442 1377.85 542.414 1377.45 546.236 1378.24C550.059 1379.04 553.569 1380.97 556.317 1383.82C559.064 1386.66 560.913 1390.27 561.665 1394.2C562.408 1398.13 561.998 1402.19 560.485 1405.89C558.992 1409.57 556.447 1412.71 553.172 1414.94Z" fill="#61DAFB"/>
</svg>
